<svg class="icon" viewBox="0 0 1024 1024" xmlns="http://www.w3.org/2000/svg" width="16" height="16"><defs><style/></defs><path d="M512.697 63.445c-247.538 0-448.208 200.65-448.208 448.208 0 247.52 200.67 448.208 448.208 448.208s448.208-200.688 448.208-448.208c0-247.558-200.669-448.208-448.208-448.208zm-1.709 671.693c-25.55 0-46.26-21.301-46.26-47.563s20.71-47.563 46.26-47.563c25.562 0 46.27 21.3 46.27 47.563s-20.71 47.563-46.27 47.563zm129.224-298.916c-6.384 12.292-13.97 22.87-22.752 31.77-8.78 8.936-24.557 23.928-47.299 45.047-6.291 5.945-11.334 11.16-15.12 15.684-3.792 4.487-6.619 8.608-8.462 12.366a60.048 60.048 0 0 0-4.303 11.197c-1.013 3.756-2.544 10.322-4.58 19.733-3.517 19.95-14.524 29.91-33.026 29.91-9.612 0-17.709-3.248-24.266-9.775-6.574-6.53-9.848-16.195-9.848-29.072 0-16.086 2.398-30.055 7.204-41.836 4.814-11.819 11.188-22.178 19.15-31.077 7.96-8.9 18.684-19.515 32.18-31.807 11.835-10.724 20.398-18.821 25.66-24.293a81.893 81.893 0 0 0 13.324-18.273c3.61-6.712 5.415-14.007 5.415-21.849 0-15.355-5.509-28.305-16.504-38.845-11.017-10.542-25.205-15.831-42.594-15.831-20.355 0-35.336 5.325-44.948 15.976-9.62 10.65-17.754 26.298-24.42 47.053-6.291 21.666-18.22 32.499-35.791 32.499-10.35 0-19.103-3.794-26.217-11.38-7.121-7.587-10.678-15.794-10.678-24.584 0-18.238 5.635-36.695 16.915-55.406 11.28-18.676 27.757-34.177 49.396-46.433 21.63-12.293 46.889-18.42 75.742-18.42 26.826 0 50.49 5.143 71.026 15.392 20.534 10.25 36.392 24.22 47.58 41.837 11.19 17.654 16.789 36.84 16.789 57.558 0 16.305-3.191 30.604-9.573 42.86z" fill="#999"/></svg>