<?xml version="1.0" standalone="no"?><!DOCTYPE svg PUBLIC "-//W3C//DTD SVG 1.1//EN" "http://www.w3.org/Graphics/SVG/1.1/DTD/svg11.dtd"><svg t="1525241472456" class="icon" style="" viewBox="0 0 1024 1024" version="1.1" xmlns="http://www.w3.org/2000/svg" p-id="4552" id="mx_n_1525241472457" xmlns:xlink="http://www.w3.org/1999/xlink" width="128" height="128"><defs><style type="text/css"></style></defs><path d="M880.844449 415.102565v428.755051c0 21.2876-17.257587 38.545187-38.545187 38.545187h-661.429919c-21.2876 0-38.545187-17.256563-38.545187-38.545187V215.17974c0-21.2876 17.257587-38.545187 38.545187-38.545187H489.993633c12.82314 0 23.218648-10.395508 23.218647-23.218648s-10.395508-23.218648-23.218647-23.218647H180.870367c-46.934903 0-84.982482 38.047579-84.982482 84.982482v628.677876c0 46.934903 38.047579 84.982482 84.982482 84.982482h661.429919c46.934903 0 84.982482-38.047579 84.982482-84.982482V415.102565c0-12.82314-10.395508-23.218648-23.218647-23.218648-12.824164 0-23.219671 10.395508-23.219672 23.218648z" fill="" p-id="4553"></path><path d="M917.407394 197.614987l-9.607116-9.607116-0.023549 0.023549-85.674628-85.674628c-9.067528-9.067528-23.768474-9.067528-32.836003 0-9.067528 9.067528-9.067528 23.768474 0 32.836002l62.581919 62.581919c-194.003744-8.607804-367.508279 129.995552-398.045659 326.335803a388.633081 388.633081 0 0 0-4.613627 64.31638c0.149487 12.746348 10.479466 23.021038 23.226838 23.021038 12.962388 0 23.364039-10.611548 23.209433-23.571888-0.224231-18.814917 1.123202-37.720959 4.063801-56.62905 7.048427-45.315117 22.746636-87.87291 46.658454-126.488745 23.110116-37.32062 52.890844-69.443998 88.513863-95.477306 35.624042-26.033308 75.274001-44.650615 117.851248-55.334859a335.764762 335.764762 0 0 1 98.851009-9.701313l-62.254276 62.254275c-9.067528 9.067528-9.067528 23.768474 0 32.836002 9.067528 9.067528 23.768474 9.067528 32.836003 0l95.26229-95.26229c12.829283-12.827235 12.829283-33.62849 0-46.457773z" fill="" p-id="4554"></path></svg>